<svg width="96" height="16" viewBox="0 0 96 16" fill="none" xmlns="http://www.w3.org/2000/svg">
<path d="M7.99999 11.5133L10.7667 13.1867C11.2733 13.4933 11.8933 13.04 11.76 12.4667L11.0267 9.31999L13.4733 7.19999C13.92 6.81332 13.68 6.07999 13.0933 6.03332L9.87332 5.75999L8.61332 2.78665C8.38665 2.24665 7.61332 2.24665 7.38665 2.78665L6.12665 5.75332L2.90665 6.02665C2.31999 6.07332 2.07999 6.80665 2.52665 7.19332L4.97332 9.31332L4.23999 12.46C4.10665 13.0333 4.72665 13.4867 5.23332 13.18L7.99999 11.5133Z" fill="#C46A2B"/>
<path d="M28 11.5133L30.7667 13.1867C31.2733 13.4933 31.8933 13.04 31.76 12.4667L31.0267 9.31999L33.4733 7.19999C33.92 6.81332 33.68 6.07999 33.0933 6.03332L29.8733 5.75999L28.6133 2.78665C28.3867 2.24665 27.6133 2.24665 27.3867 2.78665L26.1267 5.75332L22.9067 6.02665C22.32 6.07332 22.08 6.80665 22.5267 7.19332L24.9733 9.31332L24.24 12.46C24.1067 13.0333 24.7267 13.4867 25.2333 13.18L28 11.5133Z" fill="#C46A2B"/>
<path d="M48 11.5133L50.7667 13.1867C51.2733 13.4933 51.8933 13.04 51.76 12.4667L51.0267 9.31999L53.4733 7.19999C53.92 6.81332 53.68 6.07999 53.0933 6.03332L49.8733 5.75999L48.6133 2.78665C48.3867 2.24665 47.6133 2.24665 47.3867 2.78665L46.1267 5.75332L42.9067 6.02665C42.32 6.07332 42.08 6.80665 42.5267 7.19332L44.9733 9.31332L44.24 12.46C44.1067 13.0333 44.7267 13.4867 45.2333 13.18L48 11.5133Z" fill="#C46A2B"/>
<path d="M68 11.5133L70.7667 13.1867C71.2733 13.4933 71.8933 13.04 71.76 12.4667L71.0267 9.31999L73.4733 7.19999C73.92 6.81332 73.68 6.07999 73.0933 6.03332L69.8733 5.75999L68.6133 2.78665C68.3867 2.24665 67.6133 2.24665 67.3867 2.78665L66.1267 5.75332L62.9067 6.02665C62.32 6.07332 62.08 6.80665 62.5267 7.19332L64.9733 9.31332L64.24 12.46C64.1067 13.0333 64.7267 13.4867 65.2333 13.18L68 11.5133Z" fill="#C46A2B"/>
<path d="M88 11.5133L90.7667 13.1867C91.2733 13.4933 91.8933 13.04 91.76 12.4667L91.0267 9.31999L93.4733 7.19999C93.92 6.81332 93.68 6.07999 93.0933 6.03332L89.8733 5.75999L88.6133 2.78665C88.3867 2.24665 87.6133 2.24665 87.3867 2.78665L86.1267 5.75332L82.9067 6.02665C82.32 6.07332 82.08 6.80665 82.5267 7.19332L84.9733 9.31332L84.24 12.46C84.1067 13.0333 84.7267 13.4867 85.2333 13.18L88 11.5133Z" fill="#C46A2B"/>
</svg>
